<?xml version="1.0" encoding="UTF-8" standalone="no"?>
<svg width="449px" height="537px" viewBox="0 0 449 537" version="1.1" xmlns="http://www.w3.org/2000/svg" xmlns:xlink="http://www.w3.org/1999/xlink">
    <!-- Generator: Sketch 42 (36781) - http://www.bohemiancoding.com/sketch -->
    <title>かもめたち2</title>
    <desc>Created with Sketch.</desc>
    <defs>
        <filter x="-50%" y="-50%" width="200%" height="200%" filterUnits="objectBoundingBox" id="filter-1">
            <feGaussianBlur stdDeviation="2.05187908" in="SourceGraphic"></feGaussianBlur>
        </filter>
        <filter x="-50%" y="-50%" width="200%" height="200%" filterUnits="objectBoundingBox" id="filter-2">
            <feGaussianBlur stdDeviation="2.05187908" in="SourceGraphic"></feGaussianBlur>
        </filter>
        <filter x="-50%" y="-50%" width="200%" height="200%" filterUnits="objectBoundingBox" id="filter-3">
            <feGaussianBlur stdDeviation="1.42222222" in="SourceGraphic"></feGaussianBlur>
        </filter>
        <filter x="-50%" y="-50%" width="200%" height="200%" filterUnits="objectBoundingBox" id="filter-4">
            <feGaussianBlur stdDeviation="0" in="SourceGraphic"></feGaussianBlur>
        </filter>
        <filter x="-50%" y="-50%" width="200%" height="200%" filterUnits="objectBoundingBox" id="filter-5">
            <feGaussianBlur stdDeviation="0" in="SourceGraphic"></feGaussianBlur>
        </filter>
        <filter x="-50%" y="-50%" width="200%" height="200%" filterUnits="objectBoundingBox" id="filter-6">
            <feGaussianBlur stdDeviation="0" in="SourceGraphic"></feGaussianBlur>
        </filter>
        <filter x="-50%" y="-50%" width="200%" height="200%" filterUnits="objectBoundingBox" id="filter-7">
            <feGaussianBlur stdDeviation="2.05187908" in="SourceGraphic"></feGaussianBlur>
        </filter>
        <filter x="-50%" y="-50%" width="200%" height="200%" filterUnits="objectBoundingBox" id="filter-8">
            <feGaussianBlur stdDeviation="2.05187908" in="SourceGraphic"></feGaussianBlur>
        </filter>
        <filter x="-50%" y="-50%" width="200%" height="200%" filterUnits="objectBoundingBox" id="filter-9">
            <feGaussianBlur stdDeviation="2.05187908" in="SourceGraphic"></feGaussianBlur>
        </filter>
        <filter x="-50%" y="-50%" width="200%" height="200%" filterUnits="objectBoundingBox" id="filter-10">
            <feGaussianBlur stdDeviation="2.05187908" in="SourceGraphic"></feGaussianBlur>
        </filter>
        <filter x="-50%" y="-50%" width="200%" height="200%" filterUnits="objectBoundingBox" id="filter-11">
            <feGaussianBlur stdDeviation="2.05187908" in="SourceGraphic"></feGaussianBlur>
        </filter>
        <filter x="-50%" y="-50%" width="200%" height="200%" filterUnits="objectBoundingBox" id="filter-12">
            <feGaussianBlur stdDeviation="2.05187908" in="SourceGraphic"></feGaussianBlur>
        </filter>
        <filter x="-50%" y="-50%" width="200%" height="200%" filterUnits="objectBoundingBox" id="filter-13">
            <feGaussianBlur stdDeviation="2.05187908" in="SourceGraphic"></feGaussianBlur>
        </filter>
        <filter x="-50%" y="-50%" width="200%" height="200%" filterUnits="objectBoundingBox" id="filter-14">
            <feGaussianBlur stdDeviation="1.42222222" in="SourceGraphic"></feGaussianBlur>
        </filter>
        <filter x="-50%" y="-50%" width="200%" height="200%" filterUnits="objectBoundingBox" id="filter-15">
            <feGaussianBlur stdDeviation="0" in="SourceGraphic"></feGaussianBlur>
        </filter>
        <filter x="-50%" y="-50%" width="200%" height="200%" filterUnits="objectBoundingBox" id="filter-16">
            <feGaussianBlur stdDeviation="2.05187908" in="SourceGraphic"></feGaussianBlur>
        </filter>
    </defs>
    <g id="Page-1" stroke="none" stroke-width="1" fill="none" fill-rule="evenodd">
        <g id="Desktop" transform="translate(-557.000000, -10.000000)">
            <g id="Top" transform="translate(-44.800000, -38.644444)">
                <g id="かもめたち2" transform="translate(827.336808, 316.228806) rotate(-6.000000) translate(-827.336808, -316.228806) translate(572.836808, 25.728806)">
                    <g id="Group-3" transform="translate(39.000000, 18.000000)" stroke="#FFFFFF" stroke-linecap="round" stroke-linejoin="round">
                        <g id="かもめ" transform="translate(38.400000, 217.600000)" stroke-width="6.4">
                            <path d="M-1.13686838e-13,11.462154 C8.93417675,-4.02987466 14.3213225,-1.52164144 24.380288,12.7998784 C40.3855709,-15.999848 53.1461284,12.7998784 53.1461284,12.7998784" id="Path-2" filter="url(#filter-1)"></path>
                        </g>
                        <g id="かもめ-copy" transform="translate(137.955556, 278.044444)" stroke-width="4.97777778">
                            <path d="M0,12.0989404 C9.41066618,-4.25375659 15.0851264,-1.60617708 25.68057,13.5109828 C42.539468,-16.8887285 55.9805886,13.5109828 55.9805886,13.5109828" id="Path-2" filter="url(#filter-2)"></path>
                        </g>
                        <g id="かもめ-copy-2" transform="translate(0.000000, 327.822222)" stroke-width="9.24444444">
                            <path d="M-1.13686838e-13,16.5564447 C12.8652145,-5.82093007 20.6227045,-2.19792653 35.1076147,18.4887133 C58.1552221,-23.1108916 76.5304249,18.4887133 76.5304249,18.4887133" id="Path-2" filter="url(#filter-3)"></path>
                        </g>
                        <g id="かもめ-copy-3" filter="url(#filter-4)" transform="translate(275.911111, 393.244444)" stroke-width="12.0888889">
                            <path d="M-1.13686838e-13,18.7685298 C14.5841191,-6.59865697 23.3780772,-2.49158864 39.7982975,20.9589662 C65.9252658,-26.1987078 86.7555556,20.9589662 86.7555556,20.9589662" id="Path-2" filter="url(#filter-5)"></path>
                        </g>
                        <g id="かもめ-copy-4" transform="translate(14.222222, 396.800000)" stroke-width="15.6444444">
                            <path d="M2.27373675e-13,29.9753366 C23.0191479,-9.9402941 36.8992746,-3.47776342 62.8164709,33.4220196 C104.054515,-40.781254 136.932436,33.4220196 136.932436,33.4220196" id="Path-2" filter="url(#filter-6)"></path>
                        </g>
                        <g id="かもめ-copy-5" transform="translate(79.644444, 132.266667)" stroke-width="4.26666667">
                            <path d="M1.13686838e-13,7.00464969 C5.47962841,-2.46270118 8.78374449,-0.929891993 14.9532433,7.82214793 C24.7698168,-9.77768491 32.5962921,7.82214793 32.5962921,7.82214793" id="Path-2" filter="url(#filter-7)"></path>
                        </g>
                        <g id="Group-5" transform="translate(14.222222, -0.000000)">
                            <g id="かもめ-copy-9" transform="translate(0.000000, 96.000000)" stroke-width="6.4">
                                <path d="M0,11.462154 C8.93417675,-4.02987466 14.3213225,-1.52164144 24.380288,12.7998784 C40.3855709,-15.999848 53.1461284,12.7998784 53.1461284,12.7998784" id="Path-2" filter="url(#filter-8)"></path>
                            </g>
                            <g id="かもめ-copy-8" transform="translate(108.800000, 96.711111)" stroke-width="4.97777778">
                                <path d="M0,12.0989404 C9.41066618,-4.25375659 15.0851264,-1.60617708 25.68057,13.5109828 C42.539468,-16.8887285 55.9805886,13.5109828 55.9805886,13.5109828" id="Path-2" filter="url(#filter-9)"></path>
                            </g>
                            <g id="かもめ-copy-7" transform="translate(76.800000, 0.000000)" stroke-width="4.26666667">
                                <path d="M0,7.00464969 C5.47962841,-2.46270118 8.78374449,-0.929891993 14.9532433,7.82214793 C24.7698168,-9.77768491 32.5962921,7.82214793 32.5962921,7.82214793" id="Path-2" filter="url(#filter-10)"></path>
                            </g>
                        </g>
                    </g>
                    <g id="Group-3-Copy" transform="translate(196.155556, 68.488889)" stroke-linecap="round" stroke="#FFFFFF" stroke-linejoin="round">
                        <g id="かもめ" transform="translate(38.400000, 77.511111)" stroke-width="6.4">
                            <path d="M-1.13686838e-13,11.462154 C8.93417675,-4.02987466 14.3213225,-1.52164144 24.380288,12.7998784 C40.3855709,-15.999848 53.1461284,12.7998784 53.1461284,12.7998784" id="Path-2" filter="url(#filter-11)"></path>
                        </g>
                        <g id="かもめ-copy" transform="translate(137.955556, 137.955556)" stroke-width="6.4">
                            <path d="M0,12.0989404 C9.41066618,-4.25375659 15.0851264,-1.60617708 25.68057,13.5109828 C42.539468,-16.8887285 55.9805886,13.5109828 55.9805886,13.5109828" id="Path-2" filter="url(#filter-12)"></path>
                        </g>
                        <g id="かもめ-copy-2" transform="translate(-0.000000, 187.733333)" stroke-width="6.4">
                            <path d="M0,16.5564447 C12.8652145,-5.82093007 20.6227045,-2.19792653 35.1076147,18.4887133 C58.1552221,-23.1108916 76.5304249,18.4887133 76.5304249,18.4887133" id="Path-2" filter="url(#filter-13)"></path>
                        </g>
                        <g id="かもめ-copy-3" transform="translate(194.133333, 259.555556)" stroke-width="7.82222222">
                            <path d="M3.41060513e-13,16.5564447 C12.8652145,-5.82093007 20.6227045,-2.19792653 35.1076147,18.4887133 C58.1552221,-23.1108916 76.5304249,18.4887133 76.5304249,18.4887133" id="Path-2" filter="url(#filter-14)"></path>
                        </g>
                        <g id="かもめ-copy-4" transform="translate(59.022222, 305.777778)" stroke-width="8.53333333">
                            <path d="M-3.06954462e-12,19.1035901 C14.8902946,-6.71645777 23.8688709,-2.53606907 40.6338133,21.3331307 C67.3092849,-26.6664134 88.5768807,21.3331307 88.5768807,21.3331307" id="Path-2" filter="url(#filter-15)"></path>
                        </g>
                        <g id="かもめ-copy-5" transform="translate(46.933333, 0.000000)" stroke-width="3.55555556">
                            <path d="M0,7.00464969 C5.47962841,-2.46270118 8.78374449,-0.929891993 14.9532433,7.82214793 C24.7698168,-9.77768491 32.5962921,7.82214793 32.5962921,7.82214793" id="Path-2" filter="url(#filter-16)"></path>
                        </g>
                    </g>
                    <rect id="Rectangle-6" transform="translate(254.458592, 290.410821) rotate(6.000000) translate(-254.458592, -290.410821) " x="26.9585916" y="22.9108212" width="455" height="535"></rect>
                </g>
            </g>
        </g>
    </g>
</svg>