<?xml version="1.0" encoding="UTF-8" standalone="no"?>
<svg width="325px" height="227px" viewBox="0 0 325 227" version="1.1" xmlns="http://www.w3.org/2000/svg" xmlns:xlink="http://www.w3.org/1999/xlink">
    <!-- Generator: Sketch 42 (36781) - http://www.bohemiancoding.com/sketch -->
    <title>Rectangle 5 Copy</title>
    <desc>Created with Sketch.</desc>
    <defs></defs>
    <g id="Page-1" stroke="none" stroke-width="1" fill="none" fill-rule="evenodd">
        <g id="Desktop" transform="translate(-17.000000, -750.000000)">
            <g id="how-it-works-section-copy" transform="translate(0.000000, 588.088889)">
                <g id="features" transform="translate(17.600000, 161.565101)">
                    <g id="register" transform="translate(0.000000, 1.000000)">
                        <rect id="Rectangle-5-Copy" x="0" y="0" width="324" height="226"></rect>
                        <g id="follow" transform="translate(100.000000, 40.860403)" fill="#BBBBBB">
                            <g id="Group-7" transform="translate(40.000000, 28.000000)">
                                <path d="M37.2210339,31.5439352 C37.2012751,30.9689113 36.8383704,30.480499 36.3298656,30.2808938 L30.1495888,24.100617 C29.6850512,23.6360794 28.9385037,23.6387869 28.4763772,24.1009134 C28.0110289,24.5662617 28.0141181,25.3121622 28.4760809,25.774125 L32.9321186,30.2301627 L-2.10613579,30.7861936 C-2.89255962,30.7986736 -3.54303563,31.4485661 -3.55576424,32.2377177 L-3.54573875,31.6161546 C-3.55854652,32.4102141 -2.92951848,33.0369492 -2.14094211,33.0269688 L33.4930497,32.5759778 L28.4760809,37.5929466 C28.0115433,38.0574842 28.0142508,38.8040317 28.4763772,39.2661582 C28.9417256,39.7315065 29.687626,39.7284173 30.1495888,39.2664545 L36.8799252,32.5361181 C37.1137025,32.3023408 37.2291464,31.9971423 37.2272541,31.6927149 C37.2282467,31.645859 37.2264547,31.5989638 37.2218826,31.5522921 L37.2218826,31.0974689 C37.2218826,31.1956887 37.2119908,31.2917231 37.1931556,31.3846178 C37.2061083,31.4371435 37.2154033,31.4903818 37.2210339,31.5439352 Z" id="Combined-Shape" transform="translate(16.835878, 31.683657) rotate(61.000000) translate(-16.835878, -31.683657) "></path>
                                <path d="M77.1927131,20.6029655 C77.1729543,20.0279417 76.8100496,19.5395294 76.3015449,19.3399242 L70.1212681,13.1596474 C69.6567304,12.6951097 68.9101829,12.6978173 68.4480565,13.1599437 C67.9827082,13.625292 67.9857973,14.3711925 68.4477601,14.8331553 L72.9037978,19.289193 L37.8655434,19.845224 C37.0791196,19.8577039 36.4286436,20.5075965 36.415915,21.296748 L36.4259405,20.675185 C36.4131327,21.4692445 37.0421607,22.0959795 37.8307371,22.0859991 L73.4647289,21.6350081 L68.4477601,26.6519769 C67.9832225,27.1165146 67.98593,27.8630621 68.4480565,28.3251885 C68.9134048,28.7905368 69.6593053,28.7874476 70.1212681,28.3254848 L76.8516045,21.5951484 C77.0853818,21.3613711 77.2008256,21.0561726 77.1989334,20.7517453 C77.199926,20.7048893 77.198134,20.6579942 77.1935618,20.6113224 L77.1935618,20.1564992 C77.1935618,20.2547191 77.18367,20.3507534 77.1648348,20.4436482 C77.1777875,20.4961738 77.1870826,20.5494121 77.1927131,20.6029655 Z" id="Combined-Shape-Copy" transform="translate(56.807557, 20.742687) rotate(48.000000) translate(-56.807557, -20.742687) "></path>
                                <path d="M90.8618068,37.5071137 C90.8419037,36.929503 90.4750332,36.4368178 89.9617937,36.2352527 L83.7903647,30.0638237 C83.325827,29.599286 82.5792795,29.6019936 82.1171531,30.06412 C81.6518048,30.5294683 81.6548939,31.2753688 82.1168567,31.7373316 L86.5429612,36.1634361 L19.0473301,36.7594101 C18.2502762,36.7664479 17.5985189,37.4117728 17.5756426,38.2009243 L17.5936607,37.5793613 C17.5706422,38.3734208 18.1931583,39.0037331 18.9837716,38.9981656 L87.1549083,38.5181017 L82.1168567,43.5561532 C81.6523191,44.0206909 81.6550266,44.7672383 82.1171531,45.2293648 C82.5825014,45.6947131 83.3284019,45.6916239 83.7903647,45.2296611 L90.5207011,38.4993247 C90.7544784,38.2655474 90.8699222,37.9603489 90.86803,37.6559216 C90.8690226,37.6090656 90.8672305,37.5621704 90.8626584,37.5154987 L90.8626584,37.0606755 C90.8626584,37.1591437 90.8528244,37.2553587 90.8340645,37.3483649 C90.8469456,37.4007061 90.8561952,37.4537534 90.8618068,37.5071137 Z" id="Combined-Shape-Copy-2" transform="translate(54.221969, 37.646864) rotate(47.000000) translate(-54.221969, -37.646864) "></path>
                            </g>
                        </g>
                    </g>
                </g>
            </g>
        </g>
    </g>
</svg>