<?xml version="1.0" encoding="UTF-8" standalone="no"?>
<svg width="326px" height="227px" viewBox="0 0 326 227" version="1.1" xmlns="http://www.w3.org/2000/svg" xmlns:xlink="http://www.w3.org/1999/xlink">
    <!-- Generator: Sketch 42 (36781) - http://www.bohemiancoding.com/sketch -->
    <title>Rectangle 5 Copy 2</title>
    <desc>Created with Sketch.</desc>
    <defs>
        <path d="M44.5035436,51.8872483 L28.330546,68.0602459 C27.6540224,68.7367695 27.6576003,69.8210455 28.3285682,70.4920134 C29.004214,71.1676592 30.0882756,71.1620958 30.7603358,70.4900356 L46.9333333,54.3170381 L63.1063309,70.4900356 C63.7828545,71.1665593 64.8671305,71.1629813 65.5380984,70.4920134 C66.2137442,69.8163676 66.2081808,68.7323061 65.5361206,68.0602459 L49.3631231,51.8872483 L65.5361206,35.7142508 C66.2126443,35.0377271 66.2090663,33.9534511 65.5380984,33.2824832 C64.8624526,32.6068375 63.7783911,32.6124008 63.1063309,33.284461 L46.9333333,49.4574586 L30.7603358,33.284461 C30.0838121,32.6079374 28.9995362,32.6115153 28.3285682,33.2824832 C27.6529225,33.958129 27.6584858,35.0421906 28.330546,35.7142508 L44.5035436,51.8872483 Z" id="path-1"></path>
        <mask id="mask-2" maskContentUnits="userSpaceOnUse" maskUnits="objectBoundingBox" x="-1.42222222" y="-1.42222222" width="41.0627842" height="41.0627842">
            <rect x="26.4019412" y="31.3558562" width="41.0627842" height="41.0627842" fill="white"></rect>
            <use xlink:href="#path-1" fill="black"></use>
        </mask>
    </defs>
    <g id="Page-1" stroke="none" stroke-width="1" fill="none" fill-rule="evenodd">
        <g id="Desktop" transform="translate(-684.000000, -750.000000)">
            <g id="how-it-works-section-copy" transform="translate(0.000000, 588.088889)">
                <g id="features" transform="translate(17.600000, 161.565101)">
                    <g id="fav" transform="translate(666.044444, 0.000000)">
                        <rect id="Rectangle-5-Copy-2" x="1.68888889" y="1" width="324" height="226"></rect>
                        <g id="kataomoi" transform="translate(99.288889, 16.432215)">
                            <g id="Combined-Shape">
                                <use fill="#E45275" fill-rule="evenodd" xlink:href="#path-1"></use>
                                <use stroke="#E35275" mask="url(#mask-2)" stroke-width="2.84444444" xlink:href="#path-1"></use>
                            </g>
                        </g>
                    </g>
                </g>
            </g>
        </g>
    </g>
</svg>