<?xml version="1.0" encoding="UTF-8" standalone="no"?>
<svg width="326px" height="227px" viewBox="0 0 326 227" version="1.1" xmlns="http://www.w3.org/2000/svg" xmlns:xlink="http://www.w3.org/1999/xlink">
    <!-- Generator: Sketch 42 (36781) - http://www.bohemiancoding.com/sketch -->
    <title>Rectangle 5 Copy 2</title>
    <desc>Created with Sketch.</desc>
    <defs></defs>
    <g id="Page-1" stroke="none" stroke-width="1" fill="none" fill-rule="evenodd">
        <g id="Desktop" transform="translate(-684.000000, -750.000000)">
            <g id="how-it-works-section-copy" transform="translate(0.000000, 588.088889)">
                <g id="features" transform="translate(17.600000, 161.565101)">
                    <g id="fav" transform="translate(666.044444, 0.000000)">
                        <rect id="Rectangle-5-Copy-2" x="1.68888889" y="1" width="324" height="226"></rect>
                        <g id="kataomoi" transform="translate(99.288889, 16.432215)" fill="#BBBBBB">
                            <path d="M82.9843847,52.1680893 C82.9644816,51.5904786 82.5976111,51.0977934 82.0843716,50.8962283 L75.9129426,44.7247992 C75.4484049,44.2602616 74.7018574,44.2629691 74.239731,44.7250955 C73.7743827,45.1904439 73.7774719,45.9363443 74.2394347,46.3983071 L78.6655391,50.8244116 L11.169908,51.4203856 C10.3728541,51.4274234 9.7210968,52.0727483 9.6982205,52.8618998 L9.71623866,52.2403368 C9.69322009,53.0343963 10.3157362,53.6647087 11.1063496,53.6591412 L79.2774862,53.1790772 L74.2394347,58.2171288 C73.774897,58.6816664 73.7776045,59.4282139 74.239731,59.8903403 C74.7050793,60.3556887 75.4509798,60.3525995 75.9129426,59.8906367 L82.643279,53.1603003 C82.8770563,52.926523 82.9925001,52.6213245 82.9906079,52.3168971 C82.9916005,52.2700412 82.9898085,52.223146 82.9852363,52.1764742 L82.9852363,51.721651 C82.9852363,51.8201192 82.9754023,51.9163342 82.9566425,52.0093404 C82.9695235,52.0616816 82.9787732,52.114729 82.9843847,52.1680893 Z" id="Combined-Shape-Copy-3" transform="translate(46.344547, 52.307839) rotate(270.000000) translate(-46.344547, -52.307839) "></path>
                        </g>
                    </g>
                </g>
            </g>
        </g>
    </g>
</svg>