<?xml version="1.0" encoding="UTF-8" standalone="no"?>
<svg width="326px" height="227px" viewBox="0 0 326 227" version="1.1" xmlns="http://www.w3.org/2000/svg" xmlns:xlink="http://www.w3.org/1999/xlink">
    <!-- Generator: Sketch 42 (36781) - http://www.bohemiancoding.com/sketch -->
    <title>Rectangle 5</title>
    <desc>Created with Sketch.</desc>
    <defs></defs>
    <g id="Page-1" stroke="none" stroke-width="1" fill="none" fill-rule="evenodd">
        <g id="Desktop" transform="translate(-351.000000, -750.000000)">
            <g id="how-it-works-section-copy" transform="translate(0.000000, 588.088889)">
                <g id="features" transform="translate(17.600000, 161.565101)">
                    <g id="listen" transform="translate(332.733333, 0.000000)">
                        <rect id="Rectangle-5" x="1.26666667" y="1" width="324" height="226"></rect>
                        <g id="return" transform="translate(55.000000, 37.049664)" fill="#BBBBBB">
                            <g id="Group-8" transform="translate(120.000000, 7.000000)">
                                <path d="M3.50696165,61.3940272 L31.3844305,79.0003373 L24.4444093,80.4754844 C23.80181,80.6120731 23.3974818,81.2396551 23.5333615,81.8789191 C23.6701886,82.5226399 24.2974359,82.9262956 24.9364734,82.7904639 L34.2466124,80.8115328 C34.5699988,80.7427949 34.8330411,80.5497091 34.9972572,80.2933643 C35.0236093,80.2546082 35.0476473,80.2143026 35.069232,80.1726702 L35.3169465,79.7912233 C35.2634521,79.8735975 35.2028521,79.9487512 35.1364615,80.0164009 C35.118717,80.0675072 35.0975169,80.117219 35.0730718,80.1651993 C35.3696811,79.6721823 35.331332,79.0649132 35.0135768,78.6205587 L33.1963805,70.0713224 C33.0597918,69.428723 32.4322098,69.0243949 31.7929458,69.1602746 C31.149225,69.2971017 30.7455693,69.924349 30.8814009,70.5633865 L32.1916165,76.7274663 L4.82923304,59.569174 L11.3675472,58.1794124 C12.0101466,58.0428237 12.4144748,57.4152417 12.278595,56.7759777 C12.141768,56.1322569 11.5145207,55.7286012 10.8754831,55.8644329 L1.56534415,57.843364 C1.43550475,57.8709622 1.31539291,57.9186055 1.20749929,57.9823401 C0.926309956,58.0860737 0.674361753,58.2745821 0.496910271,58.5384183 L0.843845851,58.0225919 C0.648155615,58.3135456 0.575165672,58.6452886 0.612065919,58.9613294 C0.606563623,59.063628 0.614313083,59.1683724 0.636644919,59.2734354 L2.61557605,68.5835744 C2.75216476,69.2261737 3.3797468,69.6305019 4.01901076,69.4946222 C4.66273155,69.3577951 5.06638726,68.7305478 4.93055563,68.0915103 L3.50696165,61.3940272 Z" id="Combined-Shape"></path>
                                <path d="M6.8930966,18.6449318 L37.6465939,7.61837852 L34.536322,13.995381 C34.2483317,14.5858486 34.4939438,15.2908417 35.0813466,15.5773372 C35.6728447,15.86583 36.3771017,15.6200677 36.6634957,15.0328729 L40.8359706,6.47803164 C40.9809009,6.18088041 40.9906923,5.85472473 40.8897913,5.56749907 C40.875475,5.52287272 40.8585131,5.47911589 40.8389952,5.43647544 L40.6909192,5.00643166 C40.7228965,5.09930038 40.7448094,5.19332309 40.7572439,5.28728893 C40.7865916,5.33273591 40.8127129,5.38004751 40.835472,5.42885015 C40.6295803,4.89158725 40.1274356,4.54793458 39.5816498,4.5247571 L31.725982,0.693291896 C31.1355144,0.405301592 30.4305213,0.650913693 30.1440258,1.23831649 C29.855533,1.82981456 30.1012953,2.53407158 30.6884901,2.82046561 L36.3525005,5.58298806 L5.50057442,16.7568114 L8.68778654,10.2220582 C8.97577685,9.63159055 8.73016474,8.9265975 8.14276194,8.64010201 C7.55126388,8.35160913 6.84700686,8.59737146 6.56061283,9.18456623 L2.38813794,17.7394075 C2.2432076,18.0365588 2.23341625,18.3627144 2.33431723,18.6499401 C2.35968662,18.7290209 2.39336398,18.8053712 2.43485012,18.8776174 C2.43129416,19.0379335 2.45405173,19.2009147 2.50612541,19.3604613 L2.31324356,18.7694979 C2.51694768,19.3936193 3.09816203,19.7668133 3.71291846,19.7270476 L11.4981265,23.5241473 C12.0885942,23.8121376 12.7935872,23.5665255 13.0800827,22.9791227 C13.3685756,22.3876246 13.1228133,21.6833676 12.5356185,21.3969736 L6.8930966,18.6449318 Z" id="Combined-Shape"></path>
                                <path d="M5.33886573,42.6157911 L55.6177058,42.05828 L51.181952,37.6225262 C50.7199892,37.1605634 50.7169,36.4146629 51.1822483,35.9493146 C51.6443748,35.4871882 52.3909223,35.4844806 52.8554599,35.9490183 L59.0289962,42.1225546 C59.5410528,42.3230342 59.9070544,42.8148462 59.9269046,43.3923324 C59.9212882,43.3389163 59.9120262,43.2858137 59.8991252,43.2334191 C59.9179031,43.1404385 59.9277536,43.0442704 59.9277536,42.9458701 L59.9277536,43.4006933 C59.9323258,43.4473651 59.9341178,43.4942602 59.9331252,43.5411162 C59.9350174,43.8455435 59.8195736,44.150742 59.5857963,44.3845193 L52.8554599,51.1148557 C52.3934971,51.5768185 51.6475966,51.5799077 51.1822483,51.1145594 C50.7201219,50.652433 50.7174144,49.9058855 51.181952,49.4413478 L56.2132653,44.4100345 L5.74710561,44.8563228 L10.3321307,49.4413478 C10.7966683,49.9058855 10.7939608,50.652433 10.3318343,51.1145594 C9.86648601,51.5799077 9.12058552,51.5768185 8.65862273,51.1148557 L2.19630525,44.6525383 C1.98196443,44.5109438 1.81071697,44.3108892 1.704111,44.0735642 C1.65884383,43.9825974 1.62607419,43.8871291 1.60576767,43.7896497 C1.5835529,43.8854123 1.57075241,43.9845872 1.56840866,44.0861189 L1.58094754,43.5429314 C1.58095037,43.5423263 1.58095367,43.5417212 1.58095743,43.5411162 C1.57436575,43.2299548 1.6905764,42.9170646 1.92828632,42.6793547 L8.65862273,35.9490183 C9.12316037,35.4844806 9.86970787,35.4871882 10.3318343,35.9493146 C10.7971826,36.4146629 10.7940934,37.1605634 10.3321307,37.6225262 L5.33886573,42.6157911 Z" id="Combined-Shape"></path>
                            </g>
                        </g>
                    </g>
                </g>
            </g>
        </g>
    </g>
</svg>