<?xml version="1.0" encoding="UTF-8" standalone="no"?>
<svg width="1024px" height="199px" viewBox="0 0 1024 199" version="1.1" xmlns="http://www.w3.org/2000/svg" xmlns:xlink="http://www.w3.org/1999/xlink">
    <!-- Generator: Sketch 42 (36781) - http://www.bohemiancoding.com/sketch -->
    <title>graph copy 2</title>
    <desc>Created with Sketch.</desc>
    <defs></defs>
    <g id="Page-1" stroke="none" stroke-width="1" fill="none" fill-rule="evenodd" opacity="0.542572464">
        <g id="Desktop" transform="translate(0.000000, -387.000000)">
            <g id="Top" transform="translate(-44.800000, -16.644444)">
                <g id="waves" transform="translate(-0.000000, 78.511111)">
                    <g id="graph-copy-2" transform="translate(0.000000, 318.979380)">
                        <path d="M5.28808376,2.07162689 C6.10342478,-2.85969717 29.8230292,1.70321549 46.4197032,8.93764401 C60.9634059,15.27719 75.4513848,26.1542431 89.1460958,40.8360425 C101.69401,54.2883859 114.304668,67.8951068 122.334075,83.7862562 C123.646296,86.3832974 144.784627,125.164666 171.63041,154.375167 C185.879673,169.87958 206.881738,187.992351 229.984107,192.247058 C253.086475,196.501765 273.406726,187.159009 281.288922,181.880437 C297.092614,171.296974 310.01575,153.370782 322.635001,137.484815 C331.669437,126.111654 338.9332,112.346147 346.732197,101.68169 C356.035563,88.9601368 365.639001,79.6889018 373.569869,70.9175429 C377.534672,66.5325621 384.09295,63.6918314 387.440654,60.6047825 C388.920269,59.2403718 390.685253,59.7557205 391.999804,59.205081 C392.628861,58.9415815 392.38978,57.3380301 393.403782,57.2260586 C399.92459,56.5059955 406.505091,53.6349552 412.982934,52.9303831 C433.668277,50.6805116 454.432561,62.4787847 473.476366,81.2957063 C492.369015,99.9632719 509.546649,125.555605 528.687473,146.935562 C555.501956,176.88686 585.238,199.248493 611.222744,196.886524 C627.337666,195.421705 644.990945,192.017473 660.296565,184.886364 C679.001302,176.171557 694.958788,162.633985 709.7662,149.521601 C722.49022,138.25412 736.095228,127.467837 746.926719,117.568264 C751.317794,113.554987 756.143964,110.626559 760.07784,107.25812 C762.046896,105.572087 764.207373,102.658877 767.119023,101.68169 C778.856618,97.742405 788.330835,87.5793777 799.678017,83.7862562 C825.74895,75.0712977 862.744809,79.8441074 895.367289,98.0807571 C898.304422,99.722676 901.193492,100.230165 904.273838,101.68169 C913.875087,106.206005 922.636528,111.694247 930.92152,117.568264 C940.51604,124.37073 951.47958,128.025415 959.161096,132.922295 C963.614806,135.761484 967.741796,138.108716 971.02546,139.840635 C972.984657,140.873983 974.052218,142.405507 976.345209,141.708547 C978.014147,141.20127 979.873304,145.746968 981.375654,146.935562 C983.666548,148.74802 985.574739,147.864499 988.226846,149.521601 C995.926827,154.332738 1007.08801,157.571243 1016.94572,162.651927 C1019.51693,163.977137 1022.09862,165.084458 1024.8908,166.071201 C1035.29175,169.74684 1044.94608,172.130476 1054.18684,174.6704 C1070.70382,179.21027 1082.37538,182.699243 1088.13334,172.491169 C1109.82677,134.031671 1075.18804,0.0702921215 1075.18804,0.0702921215 L1075.18804,205.006972 L14.0017634,205.006972 C14.0017634,205.006972 -10.1055451,95.174967 5.28808376,2.07162689 Z" id="Rectangle" fill="#FFFFFF"></path>
                        <path d="M6.63241426,0.0702921215 C121.170903,0.0702976484 151.717721,196.402541 237.124043,196.402541 C322.530365,196.402541 342.836333,52.6020602 417.922724,52.6020602 C493.009115,52.6020602 524.865146,196.402541 612.569179,196.402541 C700.273212,196.402541 746.284549,80.0582803 829.634793,80.0582803 C912.985037,80.0582803 989.10386,179.798003 1095.82222,179.798003" id="COMMENTS_GRAPH" stroke="#FFFFFF" stroke-width="2.84444444" stroke-linecap="round" stroke-linejoin="round"></path>
                    </g>
                </g>
            </g>
        </g>
    </g>
</svg>