<?xml version="1.0" encoding="UTF-8" standalone="no"?>
<svg width="1024px" height="268px" viewBox="0 0 1024 268" version="1.1" xmlns="http://www.w3.org/2000/svg" xmlns:xlink="http://www.w3.org/1999/xlink">
    <!-- Generator: Sketch 42 (36781) - http://www.bohemiancoding.com/sketch -->
    <title>graph copy</title>
    <desc>Created with Sketch.</desc>
    <defs></defs>
    <g id="Page-1" stroke="none" stroke-width="1" fill="none" fill-rule="evenodd" opacity="0.718127264">
        <g id="Desktop" transform="translate(0.000000, -318.000000)" fill="#FFFFFF">
            <g id="Top" transform="translate(-44.800000, -16.644444)">
                <g id="waves" transform="translate(-0.000000, 78.511111)">
                    <g id="graph-copy" transform="translate(26.311111, 256.617119)">
                        <path d="M7.05192221,2.7018071 C8.13921994,-3.72960504 39.77049,2.2213265 61.9029786,11.6564378 C81.2977281,19.9244471 100.618167,34.1102541 118.880744,53.2581952 C135.614011,70.8026852 152.43095,88.5485134 163.138562,109.273684 C166.438243,115.660397 214.637507,184.71771 224.719079,197.357976 C250.20176,229.308138 287.973232,257.36354 310.138702,256.778578 C326.494241,256.346944 352.710995,251.879547 375.112741,237.207703 C396.187749,223.404795 413.421393,200.025531 430.24979,179.307119 C435.952283,172.286449 457.837074,137.171263 477.863533,114.543532 C497.889992,91.9158018 520.583313,76.7859685 523.346316,75.5794717 C535.185117,70.4099244 546.572697,69.4741506 550.733244,69.0315836 C578.318177,66.0973105 606.008379,81.4845689 631.40424,106.025519 C656.598525,130.37168 679.505752,163.749093 705.030991,191.632744 C725.457148,213.946182 751.327645,255.379378 792.671704,252.032849 C834.015762,248.68632 873.021238,206.652439 882.517193,195.005445 C904.663959,167.841957 930.904438,146.160729 949.648249,127.916512 C983.683157,94.7887631 1011.35159,87.9390674 1024.74637,88.953552 C1052.47358,91.053535 1073.89202,107.448987 1078.24619,106.025519 C1113.01308,94.6595067 1150.51303,104.13235 1194.01673,127.916512 C1197.93354,130.057896 1201.78626,130.719761 1205.89405,132.612834 C1218.6978,138.513426 1230.38161,145.671168 1241.43006,153.332036 C1254.22483,162.203784 1268.84525,166.970209 1279.08894,173.356699 C1285.02818,177.059558 1290.53173,180.120808 1294.91066,182.379569 C1297.52334,183.727257 1298.94699,185.724665 1302.00481,184.815692 C1304.23042,184.154103 1306.70969,190.082584 1308.71315,191.632744 C1311.76817,193.996543 1314.31284,192.84426 1317.84956,195.005445 C1328.11786,201.280109 1343.00185,205.503754 1356.1476,212.12996 C1359.57644,213.858294 1363.01924,215.302458 1366.74276,216.589363 C1380.61294,221.383117 1393.48747,224.491845 1405.81048,227.804402 C1427.8367,233.725283 1443.40131,238.275586 1451.07983,224.962258 C1480.0091,174.803543 1433.81663,0.0916746899 1433.81663,0.0916746899 L1433.81663,267.369233 L18.6720466,267.369233 C18.6720466,267.369233 -13.476246,124.126793 7.05192221,2.7018071 Z" id="Rectangle"></path>
                    </g>
                </g>
            </g>
        </g>
    </g>
</svg>