<?xml version="1.0" encoding="UTF-8" standalone="no"?>
<svg width="1024px" height="155px" viewBox="0 0 1024 155" version="1.1" xmlns="http://www.w3.org/2000/svg" xmlns:xlink="http://www.w3.org/1999/xlink">
    <!-- Generator: Sketch 42 (36781) - http://www.bohemiancoding.com/sketch -->
    <title>graph</title>
    <desc>Created with Sketch.</desc>
    <defs></defs>
    <g id="Page-1" stroke="none" stroke-width="1" fill="none" fill-rule="evenodd">
        <g id="Desktop" transform="translate(0.000000, -434.000000)" fill="#FFFFFF">
            <g id="Top" transform="translate(-44.800000, -16.644444)">
                <g id="waves" transform="translate(-0.000000, 78.511111)">
                    <g id="graph" transform="translate(19.911111, 371.306334)">
                        <path d="M7.415671,2.02073672 C8.55905318,-1.70995385 41.8219118,1.74202275 65.0960276,7.21507906 C75.0904028,9.56531993 111.129316,22.2527081 144.059459,43.746674 C176.989602,65.2406398 209.601413,97.4397048 224.003586,106.247012 C252.245169,123.517481 312.57325,149.601335 326.136124,149.403892 C343.335307,149.153513 370.90436,146.562095 394.461622,138.051349 C405.32447,134.12683 425.257633,116.826879 448.835779,101.013086 C472.413925,85.1992926 500.444692,65.4789562 515.186666,57.9173484 C544.101258,43.0861724 574.592247,40.7637716 579.140895,40.4968701 C608.148701,38.7947766 637.267205,47.7205146 663.973023,61.956065 C690.466867,76.0786232 714.555684,95.4399702 741.397553,111.614532 C779.000472,134.273563 820.7004,151.19079 857.139747,149.403892 C879.738285,148.295714 904.494115,145.720313 925.957739,140.32542 C952.188068,133.732415 974.565828,123.490846 995.330797,113.570945 C1013.17415,105.046767 1032.25295,96.8866292 1047.44234,89.3973134 C1053.6001,86.3611522 1060.36801,84.1457111 1065.88463,81.5973884 C1068.64591,80.3218552 1071.67562,78.1179269 1075.75873,77.3786567 C1092.21879,74.3984725 1105.50482,66.7098458 1121.41739,63.8402387 C1157.9776,57.2471182 1209.85823,60.857888 1255.60591,74.6544458 C1259.72476,75.8966053 1263.77621,76.2805356 1268.09589,77.3786567 C1281.56007,80.8014328 1293.84655,84.9534481 1305.4649,89.3973134 C1318.91964,94.5435773 1334.29421,97.3084536 1345.06627,101.013086 C1351.31187,103.161016 1357.0993,104.936765 1361.7041,106.247012 C1364.45155,107.02877 1365.94863,108.187413 1369.16418,107.660142 C1371.50459,107.276372 1374.11175,110.715325 1376.21855,111.614532 C1379.43116,112.985709 1382.10708,112.3173 1385.82623,113.570945 C1396.62419,117.210711 1412.27591,119.660735 1426.09974,123.50442 C1429.70545,124.50698 1433.32583,125.344701 1437.24141,126.091201 C1451.82704,128.871929 1465.36565,130.675219 1478.32431,132.596746 C1501.48667,136.03129 1517.85413,138.6708 1525.92872,130.948094 C1556.3502,101.852361 1507.77506,0.506668561 1507.77506,0.506668561 L1507.77506,155.547248 L19.635179,155.547248 C19.635179,155.547248 -14.1713711,72.4561307 7.415671,2.02073672 Z" id="Rectangle"></path>
                    </g>
                </g>
            </g>
            <g id="how-it-works-section-copy" transform="translate(0.000000, 588.088889)">
                <rect id="Rectangle" x="0" y="0" width="1024" height="512"></rect>
            </g>
        </g>
    </g>
</svg>